<!-- Generated by IcoMoon.io -->
<svg version="1.1" xmlns="http://www.w3.org/2000/svg" width="32" height="32" viewBox="0 0 32 32">
<path d="M27.089 5.54c-1.881-0.888-4.066-1.589-6.354-1.997l-0.159-0.023c-0.006-0.001-0.012-0.002-0.019-0.002-0.037 0-0.069 0.020-0.086 0.051l-0 0.001c-0.28 0.5-0.592 1.153-0.811 1.667-1.099-0.176-2.367-0.276-3.658-0.276s-2.559 0.1-3.795 0.294l0.137-0.018c-0.288-0.672-0.563-1.22-0.866-1.749l0.043 0.082c-0.018-0.031-0.051-0.051-0.089-0.051-0.006 0-0.012 0.001-0.017 0.001l0.001-0c-2.447 0.43-4.632 1.131-6.675 2.088l0.161-0.068c-0.018 0.008-0.033 0.021-0.042 0.037l-0 0c-4.149 6.196-5.287 12.243-4.728 18.213 0.003 0.030 0.019 0.057 0.041 0.075l0 0c2.284 1.708 4.938 3.085 7.803 3.989l0.188 0.051c0.009 0.003 0.019 0.004 0.029 0.004 0.034 0 0.064-0.016 0.083-0.041l0-0c0.616-0.84 1.165-1.727 1.635-2.659 0.028-0.055 0.001-0.12-0.055-0.141-0.974-0.375-1.795-0.775-2.578-1.234l0.082 0.045c-0.031-0.018-0.051-0.051-0.051-0.089 0-0.033 0.016-0.063 0.040-0.082l0-0c0.168-0.125 0.336-0.256 0.496-0.388 0.017-0.014 0.039-0.022 0.063-0.022 0.015 0 0.029 0.003 0.042 0.009l-0.001-0c5.236 2.391 10.907 2.391 16.081 0 0.013-0.006 0.027-0.010 0.043-0.010 0.024 0 0.045 0.008 0.062 0.022l-0-0c0.16 0.132 0.327 0.264 0.496 0.389 0.059 0.044 0.053 0.133-0.008 0.171-0.797 0.467-1.627 0.86-2.497 1.188-0.039 0.015-0.066 0.052-0.066 0.096 0 0.017 0.004 0.033 0.012 0.047l-0-0.001c0.48 0.931 1.029 1.817 1.633 2.657 0.019 0.026 0.049 0.043 0.083 0.043 0.010 0 0.020-0.002 0.030-0.004l-0.001 0c3.057-0.952 5.716-2.329 8.072-4.090l-0.069 0.050c0.024-0.017 0.040-0.043 0.043-0.073l0-0c0.667-6.903-1.117-12.899-4.732-18.213-0.009-0.018-0.023-0.031-0.041-0.038l-0.001-0zM10.693 20.156c-1.576 0-2.876-1.448-2.876-3.227 0-1.777 1.275-3.224 2.876-3.224 1.613 0 2.901 1.46 2.876 3.225 0 1.777-1.275 3.224-2.876 3.224zM21.327 20.156c-1.577 0-2.876-1.448-2.876-3.227 0-1.777 1.273-3.224 2.876-3.224 1.613 0 2.901 1.46 2.876 3.225 0 1.777-1.261 3.224-2.876 3.224z"></path>
</svg>
