<svg aria-hidden="true" style="position: absolute; width: 0; height: 0; overflow: hidden;" version="1.1" xmlns="http://www.w3.org/2000/svg" xmlns:xlink="http://www.w3.org/1999/xlink">
<defs>
<symbol id="icon-discord" viewBox="0 0 32 32">
<path fill="#fff" style="fill: var(--color1, #fff)" d="M27.089 5.54c-1.881-0.888-4.066-1.589-6.354-1.997l-0.159-0.023c-0.006-0.001-0.012-0.002-0.019-0.002-0.037 0-0.069 0.020-0.086 0.051l-0 0.001c-0.28 0.5-0.592 1.153-0.811 1.667-1.099-0.176-2.367-0.276-3.658-0.276s-2.559 0.1-3.795 0.294l0.137-0.018c-0.288-0.672-0.563-1.22-0.866-1.749l0.043 0.082c-0.018-0.031-0.051-0.051-0.089-0.051-0.006 0-0.012 0.001-0.017 0.001l0.001-0c-2.447 0.43-4.632 1.131-6.675 2.088l0.161-0.068c-0.018 0.008-0.033 0.021-0.042 0.037l-0 0c-4.149 6.196-5.287 12.243-4.728 18.213 0.003 0.030 0.019 0.057 0.041 0.075l0 0c2.284 1.708 4.938 3.085 7.803 3.989l0.188 0.051c0.009 0.003 0.019 0.004 0.029 0.004 0.034 0 0.064-0.016 0.083-0.041l0-0c0.616-0.84 1.165-1.727 1.635-2.659 0.028-0.055 0.001-0.12-0.055-0.141-0.974-0.375-1.795-0.775-2.578-1.234l0.082 0.045c-0.031-0.018-0.051-0.051-0.051-0.089 0-0.033 0.016-0.063 0.040-0.082l0-0c0.168-0.125 0.336-0.256 0.496-0.388 0.017-0.014 0.039-0.022 0.063-0.022 0.015 0 0.029 0.003 0.042 0.009l-0.001-0c5.236 2.391 10.907 2.391 16.081 0 0.013-0.006 0.027-0.010 0.043-0.010 0.024 0 0.045 0.008 0.062 0.022l-0-0c0.16 0.132 0.327 0.264 0.496 0.389 0.059 0.044 0.053 0.133-0.008 0.171-0.797 0.467-1.627 0.86-2.497 1.188-0.039 0.015-0.066 0.052-0.066 0.096 0 0.017 0.004 0.033 0.012 0.047l-0-0.001c0.48 0.931 1.029 1.817 1.633 2.657 0.019 0.026 0.049 0.043 0.083 0.043 0.010 0 0.020-0.002 0.030-0.004l-0.001 0c3.057-0.952 5.716-2.329 8.072-4.090l-0.069 0.050c0.024-0.017 0.040-0.043 0.043-0.073l0-0c0.667-6.903-1.117-12.899-4.732-18.213-0.009-0.018-0.023-0.031-0.041-0.038l-0.001-0zM10.693 20.156c-1.576 0-2.876-1.448-2.876-3.227 0-1.777 1.275-3.224 2.876-3.224 1.613 0 2.901 1.46 2.876 3.225 0 1.777-1.275 3.224-2.876 3.224zM21.327 20.156c-1.577 0-2.876-1.448-2.876-3.227 0-1.777 1.273-3.224 2.876-3.224 1.613 0 2.901 1.46 2.876 3.225 0 1.777-1.261 3.224-2.876 3.224z"></path>
</symbol>

<symbol id="icon-arrow-down" viewBox="0 0 32 32">
<path fill="none" stroke="#fff" style="stroke: var(--color1, #fff)" stroke-linejoin="round" stroke-linecap="square" stroke-miterlimit="4" stroke-width="4" d="M22.667 13.333l-6.667 6.667-6.667-6.667"></path>
</symbol>

<symbol id="icon-wallet" viewBox="0 0 32 32">
<path d="M30 24v2.5c0 1.379-1.122 2.5-2.5 2.5h-21.5c-2.206 0-4-1.794-4-4 0 0 0-16.985 0-17 0-2.206 1.794-4 4-4h18.5c0.829 0 1.5 0.672 1.5 1.5s-0.671 1.5-1.5 1.5h-18.5c-0.551 0-1 0.448-1 1s0.449 1 1 1h21.5c1.378 0 2.5 1.121 2.5 2.5v2.5h-5c-2.757 0-5 2.243-5 5s2.243 5 5 5h5z"></path>
<path d="M30 16v6h-5c-1.657 0-3-1.343-3-3s1.343-3 3-3h5z"></path>
</symbol>

<symbol id="icon-switch" viewBox="0 0 33 32">
<path fill="#21e786" style="fill: var(--color1, #21e786)" d="M16.466 7.5c-1.681-0-3.325 0.498-4.724 1.432s-2.488 2.262-3.132 3.815c-0.644 1.553-0.812 3.263-0.484 4.912s1.137 3.164 2.326 4.353c1.189 1.189 2.704 1.999 4.353 2.327s3.359 0.16 4.912-0.483c1.553-0.643 2.881-1.733 3.816-3.131s1.433-3.042 1.433-4.723c-0.002-2.254-0.899-4.415-2.492-6.008s-3.754-2.49-6.008-2.493z"></path>
<path fill="#21e786" style="fill: var(--color1, #21e786)" d="M29.98 14.503h-1.998c-0.398 0-0.779 0.158-1.061 0.439s-0.439 0.663-0.439 1.061c0 0.398 0.158 0.78 0.439 1.061s0.663 0.439 1.061 0.439h1.998c0.398 0 0.779-0.158 1.061-0.439s0.439-0.663 0.439-1.061c0-0.398-0.158-0.779-0.439-1.061s-0.663-0.439-1.061-0.439z"></path>
<path fill="#21e786" style="fill: var(--color1, #21e786)" d="M16.466 26c-0.398 0.001-0.779 0.159-1.060 0.44s-0.439 0.663-0.439 1.060v2c0 0.398 0.158 0.779 0.439 1.060s0.663 0.439 1.060 0.439 0.779-0.158 1.060-0.439c0.281-0.281 0.439-0.662 0.439-1.060v-2c-0-0.398-0.158-0.779-0.439-1.060s-0.662-0.439-1.060-0.44z"></path>
<path fill="#21e786" style="fill: var(--color1, #21e786)" d="M6.475 16.003c-0-0.398-0.158-0.779-0.439-1.060s-0.662-0.44-1.060-0.44h-1.998c-0.398 0-0.78 0.158-1.061 0.439s-0.439 0.663-0.439 1.061c0 0.398 0.158 0.78 0.439 1.061s0.663 0.439 1.061 0.439h1.998c0.398-0.001 0.779-0.159 1.060-0.44s0.439-0.663 0.439-1.060z"></path>
<path fill="#21e786" style="fill: var(--color1, #21e786)" d="M16.467 6c0.398-0.001 0.779-0.159 1.060-0.44s0.439-0.662 0.439-1.060v-2c0-0.398-0.158-0.779-0.439-1.060s-0.663-0.439-1.060-0.439-0.779 0.158-1.060 0.439c-0.281 0.281-0.439 0.662-0.439 1.060v2c0 0.398 0.158 0.779 0.439 1.060s0.662 0.44 1.060 0.44z"></path>
<path fill="#21e786" style="fill: var(--color1, #21e786)" d="M25.66 8.929l1.414-1.414c0.14-0.139 0.251-0.304 0.326-0.486s0.115-0.377 0.115-0.574c0-0.197-0.039-0.392-0.114-0.574s-0.186-0.348-0.325-0.487c-0.139-0.139-0.305-0.25-0.487-0.325s-0.377-0.114-0.575-0.114c-0.197 0-0.392 0.039-0.574 0.115s-0.347 0.187-0.486 0.326l-1.414 1.414c-0.14 0.139-0.251 0.304-0.326 0.486s-0.115 0.377-0.115 0.574c-0 0.197 0.039 0.392 0.114 0.575s0.186 0.348 0.325 0.487c0.139 0.139 0.305 0.25 0.487 0.325s0.377 0.114 0.575 0.114c0.197-0 0.392-0.039 0.574-0.115s0.347-0.187 0.486-0.326z"></path>
<path fill="#21e786" style="fill: var(--color1, #21e786)" d="M25.659 23.076c-0.139-0.14-0.304-0.25-0.486-0.326s-0.377-0.115-0.574-0.115c-0.197-0-0.392 0.039-0.574 0.114s-0.348 0.186-0.487 0.325c-0.139 0.139-0.25 0.305-0.325 0.487s-0.114 0.377-0.114 0.574c0 0.197 0.039 0.392 0.115 0.574s0.186 0.347 0.326 0.486l1.414 1.414c0.139 0.14 0.304 0.251 0.486 0.326s0.377 0.115 0.574 0.115c0.197 0 0.392-0.039 0.574-0.114s0.348-0.186 0.487-0.325c0.139-0.139 0.25-0.305 0.325-0.487s0.114-0.377 0.114-0.574c-0-0.197-0.039-0.392-0.115-0.574s-0.187-0.347-0.326-0.486l-1.414-1.414z"></path>
<path fill="#21e786" style="fill: var(--color1, #21e786)" d="M7.272 23.076l-1.414 1.414c-0.14 0.139-0.251 0.304-0.326 0.486s-0.115 0.377-0.115 0.574c-0 0.197 0.038 0.392 0.114 0.575s0.186 0.348 0.325 0.487c0.139 0.139 0.305 0.25 0.487 0.325s0.377 0.114 0.575 0.114c0.197-0 0.392-0.039 0.574-0.115s0.347-0.187 0.486-0.326l1.414-1.414c0.14-0.139 0.25-0.304 0.326-0.486s0.115-0.377 0.115-0.574c0-0.197-0.039-0.392-0.114-0.574s-0.186-0.348-0.325-0.487c-0.139-0.139-0.305-0.25-0.487-0.325s-0.377-0.114-0.574-0.114c-0.197 0-0.392 0.039-0.574 0.115s-0.347 0.187-0.486 0.326z"></path>
<path fill="#21e786" style="fill: var(--color1, #21e786)" d="M7.272 8.927c0.139 0.139 0.304 0.25 0.486 0.325s0.377 0.114 0.574 0.114c0.197 0 0.392-0.039 0.574-0.114s0.347-0.186 0.487-0.325c0.139-0.139 0.25-0.305 0.325-0.487s0.114-0.377 0.114-0.574c-0-0.197-0.039-0.392-0.114-0.574s-0.186-0.347-0.325-0.486l-1.414-1.414c-0.139-0.14-0.304-0.251-0.486-0.327s-0.377-0.115-0.574-0.115c-0.197-0-0.393 0.038-0.575 0.114s-0.348 0.186-0.487 0.325c-0.139 0.139-0.25 0.305-0.325 0.487s-0.114 0.378-0.114 0.575c0 0.197 0.039 0.392 0.115 0.574s0.187 0.347 0.327 0.486l1.414 1.414z"></path>
</symbol>

</defs>
</svg>