<svg width="25" height="24" viewBox="0 0 25 24" fill="none" xmlns="http://www.w3.org/2000/svg">
<path d="M12.3495 5.625C11.0884 5.62476 9.85553 5.99852 8.80681 6.699C7.7581 7.39947 6.94066 8.39521 6.45788 9.56028C5.9751 10.7254 5.84865 12.0074 6.09454 13.2444C6.34042 14.4813 6.94759 15.6175 7.83926 16.5094C8.73093 17.4012 9.86705 18.0086 11.1039 18.2548C12.3408 18.5009 13.6229 18.3747 14.7881 17.8922C15.9532 17.4096 16.9492 16.5924 17.6498 15.5438C18.3505 14.4952 18.7245 13.2624 18.7245 12.0013C18.7228 10.3109 18.0506 8.69032 16.8555 7.49495C15.6604 6.29958 14.0399 5.62708 12.3495 5.625Z" fill="#21E786"/>
<path d="M22.4848 10.877H20.986C20.6876 10.877 20.4014 10.9955 20.1904 11.2065C19.9794 11.4175 19.8608 11.7037 19.8608 12.0021C19.8608 12.3006 19.9794 12.5868 20.1904 12.7978C20.4014 13.0088 20.6876 13.1273 20.986 13.1273H22.4848C22.7832 13.1273 23.0694 13.0088 23.2804 12.7978C23.4914 12.5868 23.61 12.3006 23.61 12.0021C23.61 11.7037 23.4914 11.4175 23.2804 11.2065C23.0694 10.9955 22.7832 10.877 22.4848 10.877Z" fill="#21E786"/>
<path d="M12.3495 19.5C12.0513 19.5004 11.7655 19.6192 11.5547 19.8301C11.3439 20.041 11.2254 20.327 11.2251 20.6252V22.1254C11.2251 22.4236 11.3436 22.7095 11.5544 22.9204C11.7653 23.1313 12.0513 23.2497 12.3495 23.2497C12.6477 23.2497 12.9336 23.1313 13.1445 22.9204C13.3554 22.7095 13.4738 22.4236 13.4738 22.1254V20.6252C13.4736 20.327 13.3551 20.0411 13.1443 19.8301C12.9336 19.6192 12.6477 19.5005 12.3495 19.5Z" fill="#21E786"/>
<path d="M4.85657 12.0021C4.85631 11.7039 4.73778 11.418 4.52699 11.2071C4.31619 10.9961 4.03033 10.8774 3.73212 10.877H2.23359C1.93517 10.877 1.64897 10.9955 1.43796 11.2065C1.22694 11.4175 1.1084 11.7037 1.1084 12.0021C1.1084 12.3006 1.22694 12.5868 1.43796 12.7978C1.64897 13.0088 1.93517 13.1273 2.23359 13.1273H3.73212C4.03033 13.1269 4.31619 13.0082 4.52699 12.7972C4.73779 12.5863 4.85631 12.3003 4.85657 12.0021Z" fill="#21E786"/>
<path d="M12.3499 4.49972C12.6481 4.49927 12.9339 4.38056 13.1447 4.16963C13.3555 3.95869 13.474 3.67276 13.4743 3.37455V1.87436C13.4743 1.57616 13.3558 1.29018 13.145 1.07932C12.9341 0.868459 12.6481 0.75 12.3499 0.75C12.0517 0.75 11.7658 0.868459 11.5549 1.07932C11.344 1.29018 11.2256 1.57616 11.2256 1.87436V3.37455C11.2258 3.67274 11.3443 3.95867 11.5551 4.16961C11.7658 4.38054 12.0517 4.49926 12.3499 4.49972Z" fill="#21E786"/>
<path d="M19.2447 6.69659L20.3055 5.63581C20.4102 5.53148 20.4934 5.40751 20.5501 5.27101C20.6069 5.13451 20.6362 4.98815 20.6364 4.84031C20.6365 4.69248 20.6075 4.54606 20.551 4.40945C20.4945 4.27283 20.4116 4.1487 20.3071 4.04417C20.2025 3.93963 20.0784 3.85673 19.9418 3.80022C19.8052 3.74371 19.6587 3.7147 19.5109 3.71484C19.3631 3.71499 19.2167 3.74429 19.0802 3.80106C18.9437 3.85784 18.8197 3.94098 18.7154 4.04572L17.6546 5.10652C17.5499 5.21086 17.4667 5.33482 17.41 5.47132C17.3532 5.60782 17.3239 5.75418 17.3237 5.90202C17.3236 6.04986 17.3526 6.19628 17.4091 6.33289C17.4656 6.4695 17.5485 6.59363 17.6531 6.69817C17.7576 6.8027 17.8817 6.8856 18.0183 6.94211C18.1549 6.99861 18.3014 7.02762 18.4492 7.02748C18.597 7.02733 18.7434 6.99803 18.8799 6.94125C19.0164 6.88447 19.1404 6.80133 19.2447 6.69659Z" fill="#21E786"/>
<path d="M19.2445 17.3073C19.1402 17.2026 19.0162 17.1195 18.8797 17.0627C18.7432 17.006 18.5969 16.9767 18.4491 16.9766C18.3013 16.9764 18.1549 17.0055 18.0183 17.062C17.8817 17.1185 17.7576 17.2014 17.653 17.3059C17.5485 17.4104 17.4656 17.5345 17.4091 17.6711C17.3526 17.8077 17.3236 17.9541 17.3237 18.1019C17.3239 18.2497 17.3531 18.3961 17.4099 18.5326C17.4666 18.6691 17.5497 18.793 17.6544 18.8974L18.7152 19.9581C18.8196 20.0628 18.9435 20.146 19.08 20.2027C19.2165 20.2594 19.3629 20.2887 19.5107 20.2889C19.6585 20.289 19.8049 20.26 19.9415 20.2035C20.0781 20.1469 20.2022 20.0641 20.3067 19.9595C20.4112 19.855 20.4941 19.7309 20.5506 19.5943C20.6071 19.4577 20.6362 19.3113 20.636 19.1635C20.6359 19.0157 20.6066 18.8693 20.5499 18.7329C20.4931 18.5964 20.41 18.4724 20.3053 18.3681L19.2445 17.3073Z" fill="#21E786"/>
<path d="M5.45432 17.3073L4.39354 18.3681C4.28876 18.4724 4.20559 18.5964 4.14879 18.7329C4.09198 18.8694 4.06266 19.0158 4.0625 19.1636C4.06234 19.3115 4.09134 19.4579 4.14785 19.5945C4.20436 19.7312 4.28726 19.8553 4.39181 19.9599C4.49636 20.0644 4.62051 20.1473 4.75714 20.2038C4.89377 20.2603 5.04021 20.2893 5.18807 20.2892C5.33592 20.289 5.48229 20.2597 5.6188 20.2029C5.75531 20.1461 5.87928 20.0629 5.9836 19.9581L7.0444 18.8974C7.14911 18.793 7.23221 18.6691 7.28896 18.5326C7.34571 18.3961 7.37499 18.2497 7.37512 18.1019C7.37525 17.9541 7.34623 17.8077 7.28972 17.6711C7.23321 17.5345 7.15032 17.4104 7.0458 17.3059C6.94127 17.2014 6.81716 17.1185 6.68057 17.062C6.54398 17.0055 6.39759 16.9764 6.24977 16.9766C6.10195 16.9767 5.95561 17.006 5.81911 17.0627C5.68262 17.1195 5.55866 17.2026 5.45432 17.3073Z" fill="#21E786"/>
<path d="M5.45435 6.69532C5.55872 6.79987 5.68268 6.88283 5.81913 6.93945C5.95558 6.99607 6.10185 7.02525 6.24959 7.02531C6.39732 7.02537 6.54362 6.99632 6.68012 6.93981C6.81662 6.88331 6.94064 6.80045 7.04511 6.69599C7.14957 6.59153 7.23242 6.4675 7.28893 6.331C7.34544 6.1945 7.37449 6.0482 7.37442 5.90047C7.37436 5.75274 7.34519 5.60646 7.28856 5.47001C7.23194 5.33356 7.14898 5.2096 7.04443 5.10523L5.98363 4.04443C5.87933 3.93954 5.75536 3.85627 5.61882 3.79938C5.48228 3.74249 5.33586 3.7131 5.18794 3.71289C5.04002 3.71269 4.89352 3.74167 4.75682 3.79818C4.62012 3.85469 4.49592 3.93762 4.39133 4.04221C4.28673 4.14681 4.20381 4.27101 4.1473 4.40771C4.09079 4.54441 4.06181 4.69091 4.06201 4.83883C4.06222 4.98675 4.09161 5.13317 4.1485 5.26971C4.2054 5.40625 4.28867 5.53022 4.39356 5.63452L5.45435 6.69532Z" fill="#21E786"/>
</svg>
